<?xml version="1.0" encoding="UTF-8" standalone="no"?>
<!DOCTYPE svg PUBLIC "-//W3C//DTD SVG 1.1//EN"
 "http://www.w3.org/Graphics/SVG/1.1/DTD/svg11.dtd">
<!-- Generated by graphviz version 7.0.6 (20230106.0513)
 -->
<!-- Title: dependency&#45;cruiser output Pages: 1 -->
<svg width="393pt" height="200pt"
 viewBox="0.00 0.00 393.00 200.00" xmlns="http://www.w3.org/2000/svg" xmlns:xlink="http://www.w3.org/1999/xlink">
<g id="graph0" class="graph" transform="scale(1 1) rotate(0) translate(4 196)">
<title>dependency&#45;cruiser output</title>
<polygon fill="white" stroke="none" points="-4,4 -4,-196 389,-196 389,4 -4,4"/>
<g id="clust1" class="cluster">
<title>cluster_src</title>
<path fill="#ffffff" stroke="black" stroke-width="2" d="M20,-8C20,-8 365,-8 365,-8 371,-8 377,-14 377,-20 377,-20 377,-172 377,-172 377,-178 371,-184 365,-184 365,-184 20,-184 20,-184 14,-184 8,-178 8,-172 8,-172 8,-20 8,-20 8,-14 14,-8 20,-8"/>
<text text-anchor="middle" x="192.5" y="-172.8" font-family="Helvetica,sans-Serif" font-weight="bold" font-size="9.00">src</text>
</g>
<g id="clust3" class="cluster">
<title>cluster_src/controllers</title>
<path fill="#ffffff" stroke="black" stroke-width="2" d="M179,-46C179,-46 272,-46 272,-46 278,-46 284,-52 284,-58 284,-58 284,-146 284,-146 284,-152 278,-158 272,-158 272,-158 179,-158 179,-158 173,-158 167,-152 167,-146 167,-146 167,-58 167,-58 167,-52 173,-46 179,-46"/>
<text text-anchor="middle" x="225.5" y="-146.8" font-family="Helvetica,sans-Serif" font-weight="bold" font-size="9.00">controllers</text>
</g>
<g id="clust2" class="cluster">
<title>cluster_src/config</title>
<path fill="#ffffff" stroke="black" stroke-width="2" d="M90,-16C90,-16 147,-16 147,-16 153,-16 159,-22 159,-28 159,-28 159,-56 159,-56 159,-62 153,-68 147,-68 147,-68 90,-68 90,-68 84,-68 78,-62 78,-56 78,-56 78,-28 78,-28 78,-22 84,-16 90,-16"/>
<text text-anchor="middle" x="118.5" y="-56.8" font-family="Helvetica,sans-Serif" font-weight="bold" font-size="9.00">config</text>
</g>
<g id="clust4" class="cluster">
<title>cluster_src/models</title>
<path fill="#ffffff" stroke="black" stroke-width="2" d="M304,-46C304,-46 357,-46 357,-46 363,-46 369,-52 369,-58 369,-58 369,-146 369,-146 369,-152 363,-158 357,-158 357,-158 304,-158 304,-158 298,-158 292,-152 292,-146 292,-146 292,-58 292,-58 292,-52 298,-46 304,-46"/>
<text text-anchor="middle" x="330.5" y="-146.8" font-family="Helvetica,sans-Serif" font-weight="bold" font-size="9.00">models</text>
</g>
<g id="clust5" class="cluster">
<title>cluster_src/routes</title>
<path fill="#ffffff" stroke="black" stroke-width="2" d="M91.5,-76C91.5,-76 145.5,-76 145.5,-76 151.5,-76 157.5,-82 157.5,-88 157.5,-88 157.5,-146 157.5,-146 157.5,-152 151.5,-158 145.5,-158 145.5,-158 91.5,-158 91.5,-158 85.5,-158 79.5,-152 79.5,-146 79.5,-146 79.5,-88 79.5,-88 79.5,-82 85.5,-76 91.5,-76"/>
<text text-anchor="middle" x="118.5" y="-146.8" font-family="Helvetica,sans-Serif" font-weight="bold" font-size="9.00">routes</text>
</g>
<!-- src/app.js -->
<g id="node1" class="node">
<title>src/app.js</title>
<g id="a_node1"><a xlink:href="src/app.js" xlink:title="app.js">
<path fill="#ffffcc" stroke="black" d="M64,-102C64,-102 22,-102 22,-102 19,-102 16,-99 16,-96 16,-96 16,-90 16,-90 16,-87 19,-84 22,-84 22,-84 64,-84 64,-84 67,-84 70,-87 70,-90 70,-90 70,-96 70,-96 70,-99 67,-102 64,-102"/>
<text text-anchor="start" x="30" y="-90.8" font-family="Helvetica,sans-Serif" font-size="9.00">app.js</text>
</a>
</g>
</g>
<!-- src/config/database.js -->
<g id="node2" class="node">
<title>src/config/database.js</title>
<g id="a_node2"><a xlink:href="src/config/database.js" xlink:title="database.js">
<path fill="#ffffcc" stroke="black" d="M145,-42C145,-42 92,-42 92,-42 89,-42 86,-39 86,-36 86,-36 86,-30 86,-30 86,-27 89,-24 92,-24 92,-24 145,-24 145,-24 148,-24 151,-27 151,-30 151,-30 151,-36 151,-36 151,-39 148,-42 145,-42"/>
<text text-anchor="start" x="94" y="-30.8" font-family="Helvetica,sans-Serif" font-size="9.00">database.js</text>
</a>
</g>
</g>
<!-- src/app.js&#45;&gt;src/config/database.js -->
<g id="edge1" class="edge">
<title>src/app.js&#45;&gt;src/config/database.js</title>
<path fill="none" stroke="#000000" stroke-width="2" stroke-opacity="0.200000" d="M55.48,-83.62C67.31,-73.97 85.91,-58.79 99.65,-47.57"/>
<polygon fill="#000000" fill-opacity="0.200000" stroke="#000000" stroke-width="2" stroke-opacity="0.200000" points="100.67,-49.45 103.99,-44.03 98.02,-46.19 100.67,-49.45"/>
</g>
<!-- src/routes/index.js -->
<g id="node3" class="node">
<title>src/routes/index.js</title>
<g id="a_node3"><a xlink:href="src/routes/index.js" xlink:title="index.js">
<path fill="#ffffcc" stroke="black" d="M139.5,-102C139.5,-102 97.5,-102 97.5,-102 94.5,-102 91.5,-99 91.5,-96 91.5,-96 91.5,-90 91.5,-90 91.5,-87 94.5,-84 97.5,-84 97.5,-84 139.5,-84 139.5,-84 142.5,-84 145.5,-87 145.5,-90 145.5,-90 145.5,-96 145.5,-96 145.5,-99 142.5,-102 139.5,-102"/>
<text text-anchor="start" x="102.5" y="-90.8" font-family="Helvetica,sans-Serif" font-size="9.00">index.js</text>
</a>
</g>
</g>
<!-- src/app.js&#45;&gt;src/routes/index.js -->
<g id="edge2" class="edge">
<title>src/app.js&#45;&gt;src/routes/index.js</title>
<path fill="none" stroke="#000000" stroke-width="2" stroke-opacity="0.200000" d="M70.12,-93C74.13,-93 78.32,-93 82.48,-93"/>
<polygon fill="#000000" fill-opacity="0.200000" stroke="#000000" stroke-width="2" stroke-opacity="0.200000" points="82.44,-95.1 88.44,-93 82.44,-90.9 82.44,-95.1"/>
</g>
<!-- src/routes/inventory.js -->
<g id="node4" class="node">
<title>src/routes/inventory.js</title>
<g id="a_node4"><a xlink:href="src/routes/inventory.js" xlink:title="inventory.js">
<path fill="#ffffcc" stroke="black" d="M143.5,-132C143.5,-132 93.5,-132 93.5,-132 90.5,-132 87.5,-129 87.5,-126 87.5,-126 87.5,-120 87.5,-120 87.5,-117 90.5,-114 93.5,-114 93.5,-114 143.5,-114 143.5,-114 146.5,-114 149.5,-117 149.5,-120 149.5,-120 149.5,-126 149.5,-126 149.5,-129 146.5,-132 143.5,-132"/>
<text text-anchor="start" x="95.5" y="-120.8" font-family="Helvetica,sans-Serif" font-size="9.00">inventory.js</text>
</a>
</g>
</g>
<!-- src/app.js&#45;&gt;src/routes/inventory.js -->
<g id="edge3" class="edge">
<title>src/app.js&#45;&gt;src/routes/inventory.js</title>
<path fill="none" stroke="#000000" stroke-width="2" stroke-opacity="0.200000" d="M64.78,-102.38C69.13,-104.28 73.7,-106.24 78,-108 79.82,-108.75 81.69,-109.5 83.58,-110.25"/>
<polygon fill="#000000" fill-opacity="0.200000" stroke="#000000" stroke-width="2" stroke-opacity="0.200000" points="82.75,-112.18 89.11,-112.41 84.28,-108.27 82.75,-112.18"/>
</g>
<!-- src/controllers/categoryController.js -->
<g id="node5" class="node">
<title>src/controllers/categoryController.js</title>
<g id="a_node5"><a xlink:href="src/controllers/categoryController.js" xlink:title="categoryController.js">
<path fill="#ffffcc" stroke="black" d="M270,-132C270,-132 181,-132 181,-132 178,-132 175,-129 175,-126 175,-126 175,-120 175,-120 175,-117 178,-114 181,-114 181,-114 270,-114 270,-114 273,-114 276,-117 276,-120 276,-120 276,-126 276,-126 276,-129 273,-132 270,-132"/>
<text text-anchor="start" x="183" y="-120.8" font-family="Helvetica,sans-Serif" font-size="9.00">categoryController.js</text>
</a>
</g>
</g>
<!-- src/routes/inventory.js&#45;&gt;src/controllers/categoryController.js -->
<g id="edge13" class="edge">
<title>src/routes/inventory.js&#45;&gt;src/controllers/categoryController.js</title>
<path fill="none" stroke="#000000" stroke-width="2" stroke-opacity="0.200000" d="M149.87,-123C154.96,-123 160.39,-123 165.9,-123"/>
<polygon fill="#000000" fill-opacity="0.200000" stroke="#000000" stroke-width="2" stroke-opacity="0.200000" points="165.59,-125.1 171.59,-123 165.59,-120.9 165.59,-125.1"/>
</g>
<!-- src/controllers/imageController.js -->
<g id="node8" class="node">
<title>src/controllers/imageController.js</title>
<g id="a_node8"><a xlink:href="src/controllers/imageController.js" xlink:title="imageController.js">
<path fill="#ffffcc" stroke="black" d="M266,-72C266,-72 185,-72 185,-72 182,-72 179,-69 179,-66 179,-66 179,-60 179,-60 179,-57 182,-54 185,-54 185,-54 266,-54 266,-54 269,-54 272,-57 272,-60 272,-60 272,-66 272,-66 272,-69 269,-72 266,-72"/>
<text text-anchor="start" x="187" y="-60.8" font-family="Helvetica,sans-Serif" font-size="9.00">imageController.js</text>
</a>
</g>
</g>
<!-- src/routes/inventory.js&#45;&gt;src/controllers/imageController.js -->
<g id="edge14" class="edge">
<title>src/routes/inventory.js&#45;&gt;src/controllers/imageController.js</title>
<path fill="none" stroke="#000000" stroke-width="2" stroke-opacity="0.200000" d="M149.9,-115C153.3,-113.13 156.44,-110.83 159,-108 168.25,-97.76 157.22,-87.73 167,-78 168.26,-76.75 169.61,-75.59 171.04,-74.53"/>
<polygon fill="#000000" fill-opacity="0.200000" stroke="#000000" stroke-width="2" stroke-opacity="0.200000" points="172.02,-76.39 176.1,-71.52 169.87,-72.79 172.02,-76.39"/>
</g>
<!-- src/controllers/itemController.js -->
<g id="node10" class="node">
<title>src/controllers/itemController.js</title>
<g id="a_node10"><a xlink:href="src/controllers/itemController.js" xlink:title="itemController.js">
<path fill="#ffffcc" stroke="black" d="M262,-102C262,-102 189,-102 189,-102 186,-102 183,-99 183,-96 183,-96 183,-90 183,-90 183,-87 186,-84 189,-84 189,-84 262,-84 262,-84 265,-84 268,-87 268,-90 268,-90 268,-96 268,-96 268,-99 265,-102 262,-102"/>
<text text-anchor="start" x="191" y="-90.8" font-family="Helvetica,sans-Serif" font-size="9.00">itemController.js</text>
</a>
</g>
</g>
<!-- src/routes/inventory.js&#45;&gt;src/controllers/itemController.js -->
<g id="edge15" class="edge">
<title>src/routes/inventory.js&#45;&gt;src/controllers/itemController.js</title>
<path fill="none" stroke="#000000" stroke-width="2" stroke-opacity="0.200000" d="M148.57,-113.56C154.64,-111.66 161.02,-109.72 167,-108 170.73,-106.93 174.6,-105.85 178.49,-104.78"/>
<polygon fill="#000000" fill-opacity="0.200000" stroke="#000000" stroke-width="2" stroke-opacity="0.200000" points="178.83,-106.86 184.08,-103.28 177.74,-102.81 178.83,-106.86"/>
</g>
<!-- src/models/category.js -->
<g id="node6" class="node">
<title>src/models/category.js</title>
<g id="a_node6"><a xlink:href="src/models/category.js" xlink:title="category.js">
<path fill="#ffffcc" stroke="black" d="M355,-102C355,-102 306,-102 306,-102 303,-102 300,-99 300,-96 300,-96 300,-90 300,-90 300,-87 303,-84 306,-84 306,-84 355,-84 355,-84 358,-84 361,-87 361,-90 361,-90 361,-96 361,-96 361,-99 358,-102 355,-102"/>
<text text-anchor="start" x="308" y="-90.8" font-family="Helvetica,sans-Serif" font-size="9.00">category.js</text>
</a>
</g>
</g>
<!-- src/controllers/categoryController.js&#45;&gt;src/models/category.js -->
<g id="edge4" class="edge">
<title>src/controllers/categoryController.js&#45;&gt;src/models/category.js</title>
<path fill="none" stroke="#000000" stroke-width="2" stroke-opacity="0.200000" d="M264.02,-113.58C270.7,-111.8 277.57,-109.9 284,-108 286.96,-107.13 290.02,-106.19 293.09,-105.23"/>
<polygon fill="#000000" fill-opacity="0.200000" stroke="#000000" stroke-width="2" stroke-opacity="0.200000" points="293.72,-107.23 298.79,-103.4 292.44,-103.23 293.72,-107.23"/>
</g>
<!-- src/models/item.js -->
<g id="node7" class="node">
<title>src/models/item.js</title>
<g id="a_node7"><a xlink:href="src/models/item.js" xlink:title="item.js">
<path fill="#ffffcc" stroke="black" d="M351.5,-132C351.5,-132 309.5,-132 309.5,-132 306.5,-132 303.5,-129 303.5,-126 303.5,-126 303.5,-120 303.5,-120 303.5,-117 306.5,-114 309.5,-114 309.5,-114 351.5,-114 351.5,-114 354.5,-114 357.5,-117 357.5,-120 357.5,-120 357.5,-126 357.5,-126 357.5,-129 354.5,-132 351.5,-132"/>
<text text-anchor="start" x="316.5" y="-120.8" font-family="Helvetica,sans-Serif" font-size="9.00">item.js</text>
</a>
</g>
</g>
<!-- src/controllers/categoryController.js&#45;&gt;src/models/item.js -->
<g id="edge5" class="edge">
<title>src/controllers/categoryController.js&#45;&gt;src/models/item.js</title>
<path fill="none" stroke="#000000" stroke-width="2" stroke-opacity="0.200000" d="M276.49,-123C282.55,-123 288.63,-123 294.4,-123"/>
<polygon fill="#000000" fill-opacity="0.200000" stroke="#000000" stroke-width="2" stroke-opacity="0.200000" points="294.15,-125.1 300.15,-123 294.15,-120.9 294.15,-125.1"/>
</g>
<!-- src/models/image.js -->
<g id="node9" class="node">
<title>src/models/image.js</title>
<g id="a_node9"><a xlink:href="src/models/image.js" xlink:title="image.js">
<path fill="#ffffcc" stroke="black" d="M351.5,-72C351.5,-72 309.5,-72 309.5,-72 306.5,-72 303.5,-69 303.5,-66 303.5,-66 303.5,-60 303.5,-60 303.5,-57 306.5,-54 309.5,-54 309.5,-54 351.5,-54 351.5,-54 354.5,-54 357.5,-57 357.5,-60 357.5,-60 357.5,-66 357.5,-66 357.5,-69 354.5,-72 351.5,-72"/>
<text text-anchor="start" x="312" y="-60.8" font-family="Helvetica,sans-Serif" font-size="9.00">image.js</text>
</a>
</g>
</g>
<!-- src/controllers/imageController.js&#45;&gt;src/models/image.js -->
<g id="edge6" class="edge">
<title>src/controllers/imageController.js&#45;&gt;src/models/image.js</title>
<path fill="none" stroke="#000000" stroke-width="2" stroke-opacity="0.200000" d="M272.28,-63C279.68,-63 287.25,-63 294.35,-63"/>
<polygon fill="#000000" fill-opacity="0.200000" stroke="#000000" stroke-width="2" stroke-opacity="0.200000" points="294.02,-65.1 300.02,-63 294.02,-60.9 294.02,-65.1"/>
</g>
<!-- src/controllers/itemController.js&#45;&gt;src/models/category.js -->
<g id="edge7" class="edge">
<title>src/controllers/itemController.js&#45;&gt;src/models/category.js</title>
<path fill="none" stroke="#000000" stroke-width="2" stroke-opacity="0.200000" d="M268.39,-93C275.76,-93 283.39,-93 290.66,-93"/>
<polygon fill="#000000" fill-opacity="0.200000" stroke="#000000" stroke-width="2" stroke-opacity="0.200000" points="290.61,-95.1 296.61,-93 290.61,-90.9 290.61,-95.1"/>
</g>
<!-- src/controllers/itemController.js&#45;&gt;src/models/item.js -->
<g id="edge9" class="edge">
<title>src/controllers/itemController.js&#45;&gt;src/models/item.js</title>
<path fill="none" stroke="#000000" stroke-width="2" stroke-opacity="0.200000" d="M264.02,-102.42C270.7,-104.2 277.57,-106.1 284,-108 287.5,-109.03 291.14,-110.15 294.76,-111.3"/>
<polygon fill="#000000" fill-opacity="0.200000" stroke="#000000" stroke-width="2" stroke-opacity="0.200000" points="293.89,-113.22 300.24,-113.06 295.17,-109.22 293.89,-113.22"/>
</g>
<!-- src/controllers/itemController.js&#45;&gt;src/models/image.js -->
<g id="edge8" class="edge">
<title>src/controllers/itemController.js&#45;&gt;src/models/image.js</title>
<path fill="none" stroke="#000000" stroke-width="2" stroke-opacity="0.200000" d="M264.02,-83.58C270.7,-81.8 277.57,-79.9 284,-78 287.5,-76.97 291.14,-75.85 294.76,-74.7"/>
<polygon fill="#000000" fill-opacity="0.200000" stroke="#000000" stroke-width="2" stroke-opacity="0.200000" points="295.17,-76.78 300.24,-72.94 293.89,-72.78 295.17,-76.78"/>
</g>
<!-- src/populatedb.js -->
<g id="node11" class="node">
<title>src/populatedb.js</title>
<g id="a_node11"><a xlink:href="src/populatedb.js" xlink:title="populatedb.js">
<path fill="#ffffcc" stroke="black" d="M256,-38C256,-38 195,-38 195,-38 192,-38 189,-35 189,-32 189,-32 189,-26 189,-26 189,-23 192,-20 195,-20 195,-20 256,-20 256,-20 259,-20 262,-23 262,-26 262,-26 262,-32 262,-32 262,-35 259,-38 256,-38"/>
<text text-anchor="start" x="197" y="-26.8" font-family="Helvetica,sans-Serif" font-size="9.00">populatedb.js</text>
</a>
</g>
</g>
<!-- src/populatedb.js&#45;&gt;src/models/category.js -->
<g id="edge10" class="edge">
<title>src/populatedb.js&#45;&gt;src/models/category.js</title>
<path fill="none" stroke="#000000" stroke-width="2" stroke-opacity="0.200000" d="M262.48,-31.45C270.45,-33.59 278.23,-37.15 284,-43 295.2,-54.36 281.63,-65.87 292,-78 292.27,-78.32 292.55,-78.63 292.84,-78.94"/>
<polygon fill="#000000" fill-opacity="0.200000" stroke="#000000" stroke-width="2" stroke-opacity="0.200000" points="291.42,-80.49 297.42,-82.57 294.02,-77.2 291.42,-80.49"/>
</g>
<!-- src/populatedb.js&#45;&gt;src/models/item.js -->
<g id="edge12" class="edge">
<title>src/populatedb.js&#45;&gt;src/models/item.js</title>
<path fill="none" stroke="#000000" stroke-width="2" stroke-opacity="0.200000" d="M262.32,-30.89C270.49,-33.01 278.4,-36.71 284,-43 303.35,-64.74 274.24,-84.94 292,-108 293.09,-109.42 294.34,-110.7 295.7,-111.86"/>
<polygon fill="#000000" fill-opacity="0.200000" stroke="#000000" stroke-width="2" stroke-opacity="0.200000" points="294.51,-113.6 300.7,-115.08 296.79,-110.07 294.51,-113.6"/>
</g>
<!-- src/populatedb.js&#45;&gt;src/models/image.js -->
<g id="edge11" class="edge">
<title>src/populatedb.js&#45;&gt;src/models/image.js</title>
<path fill="none" stroke="#000000" stroke-width="2" stroke-opacity="0.200000" d="M262.36,-36.7C269.59,-38.54 277.09,-40.66 284,-43 290.07,-45.05 296.44,-47.6 302.44,-50.18"/>
<polygon fill="#000000" fill-opacity="0.200000" stroke="#000000" stroke-width="2" stroke-opacity="0.200000" points="301.21,-51.93 307.54,-52.44 302.91,-48.09 301.21,-51.93"/>
</g>
</g>
</svg>
